<svg width="256" height="312" viewBox="0 0 256 312" fill="none" xmlns="http://www.w3.org/2000/svg">
<g clip-path="url(#clip0)">
<g clip-path="url(#clip1)">
<path d="M244.782 107.268H193.976H189.122L188.036 112.002L176.178 164.062L164.321 112.002L163.234 107.268H158.38H92.9663H86.8641V113.365V137.986V144.083H92.9663H116.774C115.41 146.693 114.555 149.742 114.555 153.276V161.983L108.199 168.335H61.4151L55.0586 161.983V77.5193L61.5538 71.0292H108.014L114.509 77.5193V82.947V89.0445H120.611H145.251H151.353V82.947V40.3109V34.2134H42.0914L40.3116 35.9918L20.0402 56.2474L18.2604 58.0259V60.5434V107.891L10.7944 115.351L6.47205 119.67L10.7944 123.99L18.2604 131.45V174.432V176.95L20.0402 178.728L44.6802 203.349L46.46 205.128H48.9795H118.369L115.087 212.334L114.532 213.535V214.851V241.389H107.552H101.472V247.487V272.107V278.205H107.575H158.38H164.482V272.107V247.487V241.389H158.38H151.4V214.759L155.144 231.227L156.231 235.961H161.085H191.272H196.126L197.213 231.227L200.957 214.759V241.412H193.976H187.874V247.51V272.131V278.228H193.976H244.782H250.884V272.131V247.487V241.389H244.782H237.801V204.504L245.267 197.044L249.59 192.725L245.267 188.406L237.801 180.945V144.083H244.782H250.884V137.986V113.365V107.268H244.782ZM244.782 137.986H231.699V183.486L240.945 192.725L231.699 201.963V247.487H244.782V272.107H193.976V247.487H207.059V160.574L191.272 229.887H161.085L145.297 160.574V247.487H158.38V272.107H107.552V247.487H120.634V214.851L125.835 203.488L127.869 199.053L133.971 185.726L120.634 199.053H48.9795L24.3395 174.432V128.909L15.0937 119.67L24.3395 110.432V60.5434L44.6109 40.3109H110.58L120.657 50.3809V40.3109H145.297V82.947H120.634V75.0018L110.556 64.9317H59.0574L48.9795 75.0018V164.524L58.8956 174.432H110.718L120.634 164.524V153.276C120.634 141.635 133.971 137.986 133.971 137.986H92.9432V113.365H158.357L176.178 191.501L194 113.365H244.782V137.986Z" fill="#F2A900"/>
<path d="M244.782 236.816H242.378V206.398L248.503 200.277L252.826 195.958L256.062 192.725L252.826 189.491L248.503 185.172L242.378 179.051V148.656H244.782H250.884H255.461V144.083V137.986V113.365V107.268V102.694H250.884H244.782H193.977H189.122H185.47L184.661 106.251L183.575 110.986L176.178 143.483L168.782 110.986L167.695 106.251L166.886 102.694H163.234H158.38H92.9663H86.8641H82.2875V107.268V113.365V137.986V144.083V148.656H86.8641H92.9663H110.395C110.117 150.158 109.979 151.705 109.979 153.276V160.089L106.303 163.762H63.3105L59.6353 160.089V79.4131L63.4492 75.6022H106.118L109.932 79.4131V82.9469V89.0444V93.6175H114.509H120.611H145.251H151.353H155.93V89.0444V82.9469V40.3107V34.2132V29.6401H151.353H42.0914H40.196L38.8554 30.9797L37.0756 32.7582L16.8042 53.0138L15.0244 54.7922L13.6838 56.1318V58.0257V60.5433V105.997L7.55843 112.118L3.23602 116.437L0 119.67L3.23602 122.904L7.55843 127.223L13.6606 133.343V174.432V176.95V178.844L15.0013 180.183L16.7811 181.962L41.4211 206.582L43.2009 208.361L44.5415 209.701H46.4369H48.9564H111.227L110.903 210.417L110.348 211.618L109.932 212.518V213.511V214.828V236.816H107.528H101.472H96.8958V241.389V247.486V272.107V278.205V282.778H101.472H107.575H158.38H164.482H169.059V278.205V272.107V247.486V241.389V240.534H183.344V241.389V247.486V272.107V278.205V282.778H187.921H194.023H244.782H250.884H255.461V278.205V272.107V247.486V241.389V236.816H250.884H244.782ZM250.884 247.486V272.107V278.205H244.782H193.977H187.874V272.107V247.486V241.389H193.977H200.957V214.759L197.213 231.226L196.126 235.961H191.272H161.085H156.231L155.144 231.226L151.4 214.759V241.389H158.38H164.482V247.486V272.107V278.205H158.38H107.552H101.472V272.107V247.486V241.389H107.575H114.555V214.851V213.535L115.11 212.334L118.392 205.151H48.9795H46.4601L44.6802 203.372L20.0171 178.728L18.2373 176.95V174.432V131.45L10.7713 123.989L6.47205 119.67L10.7944 115.351L18.2604 107.891V60.5433V58.0257L20.0402 56.2473L40.3116 35.9917L42.0914 34.2132H151.4V40.3107V82.9469V89.0444H145.297H120.634H114.532V82.9469V77.5192L108.037 71.0291H61.5769L55.0817 77.5192V162.006L61.4382 168.358H108.199L114.555 162.006V153.299C114.555 149.765 115.41 146.716 116.774 144.106H92.9663H86.8641V138.009V113.365V107.268H92.9663H158.38H163.234L164.321 112.002L176.178 164.062L188.036 112.002L189.122 107.268H193.977H244.782H250.884V113.365V137.986V144.083H244.782H237.802V180.968L245.267 188.429L249.59 192.748L245.267 197.067L237.802 204.527V241.435H244.782H250.884V247.486Z" fill="#046A38"/>
<path d="M244.782 137.986V113.365H193.977L176.155 191.5L158.334 113.365H92.9201V137.986H133.948C133.948 137.986 120.611 141.635 120.611 153.276V164.524L110.718 174.432H58.8956L48.9795 164.524V74.9784L59.0574 64.9083H110.58L120.657 74.9784V82.9236H145.297V40.3105H120.634V50.3806L110.556 40.3105H44.6109L24.3395 60.5662V110.455L15.0938 119.693L24.3395 128.932V174.455L48.9795 199.076H120.634L133.971 185.749L127.869 199.076L125.835 203.511L120.634 214.874V247.509H107.552V272.13H158.357V247.486H145.274V160.574L161.062 229.887H191.249L207.036 160.574V247.486H193.953V272.107H244.782V247.486H231.699V201.963L240.945 192.724L231.699 183.486V137.986H244.782Z" fill="#046A38"/>
<path d="M73.6195 271.945H76.0928V278.205H77.5721V271.945H80.0453V270.698H73.6195V271.945Z" fill="#046A38"/>
<path d="M85.3848 276.08L83.4894 270.698H81.3167V278.205H82.7035V272.153L84.8069 278.205H86.0089L88.0892 272.153V278.205H89.476V270.698H87.3033L85.3848 276.08Z" fill="#046A38"/>
</g>
</g>
<defs>
<clipPath id="clip0">
<rect width="256" height="312" fill="white"/>
</clipPath>
<clipPath id="clip1">
<rect width="256.039" height="253.138" fill="white" transform="translate(0 29.6401)"/>
</clipPath>
</defs>
</svg>
